# xmcd CD database file
#
# Track frame offsets:
#	150
#	27989
#	61101
#	89273
#	112880
#	143369
#	173153
#	192408
#	216807
#	236476
#	262258
#
# Disc length: 3816 seconds
#
# Revision: 0
# Processed by: cddbd v1.5.2PL0 Copyright (c) Steve Scherf et al.
# Submitted via: CDex 1.51
#
DISCID=920ee60b
DTITLE=今沢カゲロウ - Cyborg OM
DYEAR=2000
DGENRE=Jazz
TTITLE0=Metal Desert
TTITLE1=Behemian
TTITLE2=Sandman's Blues
TTITLE3=Nirvana Clock
TTITLE4=Scots Driver
TTITLE5=TA
TTITLE6=Emergency
TTITLE7=Giger Plait
TTITLE8=Schwarz Markt
TTITLE9=Metal Junk Being
TTITLE10=Unknown
EXTD=YEAR: 2000
EXTT0=
EXTT1=
EXTT2=
EXTT3=
EXTT4=
EXTT5=
EXTT6=
EXTT7=
EXTT8=
EXTT9=
EXTT10=
PLAYORDER=
